# xmcd
#
# Track frame offsets:
#	220
#	17860
#	31637
#	45502
#	74035
#	89575
#	107375
#	129690
#	140940
#	159445
#	175220
#	198922
#
# Disc length: 2675 seconds
#
# Revision: 1
# Processed by: cddbd v1.5.2PL0 Copyright (c) Steve Scherf et al.
# Submitted via: audiograbber 1.83.01
#
DISCID=a50a710c
DTITLE=Helmut Schöni - Countreeeeeeeee Mucic
DYEAR=1997
DGENRE=Country
TTITLE0=Blue Moon Of Kentucky
TTITLE1=My Cabin In Caroline
TTITLE2=Tappin' Longhorn
TTITLE3=Blue Eyes Cryin' In The Rain
TTITLE4=Jambalaya
TTITLE5=Jimmir Brown The Newsboy
TTITLE6=Old Joe Clark
TTITLE7=The Ballad Of Jed Clampett
TTITLE8=Will The Circle Be Unbroken
TTITLE9=Ratwalk
TTITLE10=Beach Swing
TTITLE11=Time To Rest
EXTD=
EXTT0=
EXTT1=
EXTT2=
EXTT3=
EXTT4=
EXTT5=
EXTT6=
EXTT7=
EXTT8=
EXTT9=
EXTT10=
EXTT11=
PLAYORDER=
